<?xml version="1.0" encoding="UTF-8"?>
<svg width="288px" height="85px" viewBox="0 0 288 85" version="1.1" xmlns="http://www.w3.org/2000/svg" xmlns:xlink="http://www.w3.org/1999/xlink">
    <title>dutydock</title>
    <g id="Logo" stroke="none" stroke-width="1" fill="none" fill-rule="evenodd">
        <g id="A2" transform="translate(-476.000000, -570.000000)" fill="#FFFFFF" fill-rule="nonzero">
            <path d="M495.817,636.393185 C499.065,636.393185 501.893,635.581185 504.301,633.957185 C506.135667,632.719852 507.669635,631.076169 508.902905,629.026138 L509.005,628.850185 L509.005,635.553185 L515.725,635.553185 L515.725,570.033185 L509.005,570.033185 L509.005,603.590185 L508.844875,603.32081 C507.621625,601.33106 506.107,599.727185 504.301,598.509185 C501.893,596.885185 499.065,596.073185 495.817,596.073185 C492.345,596.073185 489.153,596.885185 486.241,598.509185 C483.329,600.133185 481.005,602.443185 479.269,605.439185 C477.533,608.435185 476.665,612.033185 476.665,616.233185 C476.665,620.377185 477.533,623.961185 479.269,626.985185 C481.005,630.009185 483.329,632.333185 486.241,633.957185 C489.153,635.581185 492.345,636.393185 495.817,636.393185 Z M496.657,630.093185 C494.305,630.093185 492.121,629.561185 490.105,628.497185 C488.089,627.433185 486.479,625.865185 485.275,623.793185 C484.071,621.721185 483.469,619.201185 483.469,616.233185 C483.469,613.265185 484.071,610.745185 485.275,608.673185 C486.479,606.601185 488.089,605.033185 490.105,603.969185 C492.121,602.905185 494.305,602.373185 496.657,602.373185 C498.617,602.373185 500.549,602.905185 502.453,603.969185 C504.357,605.033185 505.925,606.601185 507.157,608.673185 C508.389,610.745185 509.005,613.265185 509.005,616.233185 C509.005,619.201185 508.389,621.721185 507.157,623.793185 C505.925,625.865185 504.357,627.433185 502.453,628.497185 C500.549,629.561185 498.617,630.093185 496.657,630.093185 Z M536.935312,636.393185 C539.511312,636.393185 541.751312,635.819185 543.655312,634.671185 C545.559312,633.523185 547.155312,631.801185 548.443312,629.505185 L548.443312,635.553185 L555.163312,635.553185 L555.163312,596.913185 L548.443312,596.913185 L548.443312,620.433185 C548.443312,622.337185 548.037312,624.017185 547.225312,625.473185 C546.413312,626.929185 545.265312,628.063185 543.781312,628.875185 C542.297312,629.687185 540.575312,630.093185 538.615312,630.093185 C535.927312,630.093185 533.883312,629.253185 532.483312,627.573185 C531.083312,625.893185 530.383312,623.513185 530.383312,620.433185 L530.383312,596.913185 L523.663312,596.913185 L523.663312,621.273185 C523.663312,625.865185 524.867312,629.533185 527.275312,632.277185 C529.683312,635.021185 532.903312,636.393185 536.935312,636.393185 Z M570.661625,635.553185 L570.661,603.213185 L576.961625,603.213185 L576.961625,596.913185 L570.661,596.913185 L570.661625,583.473185 L563.941625,583.473185 L563.941,596.913185 L557.641625,596.913185 L557.641625,603.213185 L563.941,603.213185 L563.941625,635.553185 L570.661625,635.553185 Z M584.899937,654.033185 L610.099937,596.913185 L602.539937,596.913185 L591.918,623.540185 L581.119937,596.913185 L573.139937,596.913185 L587.923937,630.093185 L577.339937,654.033185 L584.899937,654.033185 Z M627.950249,636.393185 C631.198249,636.393185 634.026249,635.581185 636.434249,633.957185 C638.268916,632.719852 639.802884,631.076169 641.036154,629.026138 L641.138,628.851185 L641.138249,635.553185 L647.858249,635.553185 L647.858249,570.033185 L641.138249,570.033185 L641.138,603.590185 L640.978124,603.32081 C639.754874,601.33106 638.240249,599.727185 636.434249,598.509185 C634.026249,596.885185 631.198249,596.073185 627.950249,596.073185 C624.478249,596.073185 621.286249,596.885185 618.374249,598.509185 C615.462249,600.133185 613.138249,602.443185 611.402249,605.439185 C609.666249,608.435185 608.798249,612.033185 608.798249,616.233185 C608.798249,620.377185 609.666249,623.961185 611.402249,626.985185 C613.138249,630.009185 615.462249,632.333185 618.374249,633.957185 C621.286249,635.581185 624.478249,636.393185 627.950249,636.393185 Z M628.790249,630.093185 C626.438249,630.093185 624.254249,629.561185 622.238249,628.497185 C620.222249,627.433185 618.612249,625.865185 617.408249,623.793185 C616.204249,621.721185 615.602249,619.201185 615.602249,616.233185 C615.602249,613.265185 616.204249,610.745185 617.408249,608.673185 C618.612249,606.601185 620.222249,605.033185 622.238249,603.969185 C624.254249,602.905185 626.438249,602.373185 628.790249,602.373185 C630.750249,602.373185 632.682249,602.905185 634.586249,603.969185 C636.490249,605.033185 638.058249,606.601185 639.290249,608.673185 C640.522249,610.745185 641.138249,613.265185 641.138249,616.233185 C641.138249,619.201185 640.522249,621.721185 639.290249,623.793185 C638.058249,625.865185 636.490249,627.433185 634.586249,628.497185 C632.682249,629.561185 630.750249,630.093185 628.790249,630.093185 Z M672.428562,636.393185 C676.236562,636.393185 679.638562,635.525185 682.634562,633.789185 C685.630562,632.053185 688.010562,629.659185 689.774562,626.607185 C691.538562,623.555185 692.420562,620.097185 692.420562,616.233185 C692.420562,612.313185 691.538562,608.841185 689.774562,605.817185 C688.010562,602.793185 685.630562,600.413185 682.634562,598.677185 C679.638562,596.941185 676.236562,596.073185 672.428562,596.073185 C668.676562,596.073185 665.288562,596.941185 662.264562,598.677185 C659.240562,600.413185 656.846562,602.793185 655.082562,605.817185 C653.318562,608.841185 652.436562,612.313185 652.436562,616.233185 C652.436562,620.097185 653.318562,623.555185 655.082562,626.607185 C656.846562,629.659185 659.240562,632.053185 662.264562,633.789185 C665.288562,635.525185 668.676562,636.393185 672.428562,636.393185 Z M672.428562,630.093185 C669.908562,630.093185 667.654562,629.491185 665.666562,628.287185 C663.678562,627.083185 662.110562,625.445185 660.962562,623.373185 C659.814562,621.301185 659.240562,618.921185 659.240562,616.233185 C659.240562,613.545185 659.814562,611.151185 660.962562,609.051185 C662.110562,606.951185 663.678562,605.313185 665.666562,604.137185 C667.654562,602.961185 669.908562,602.373185 672.428562,602.373185 C674.948562,602.373185 677.202562,602.961185 679.190562,604.137185 C681.178562,605.313185 682.746562,606.951185 683.894562,609.051185 C685.042562,611.151185 685.616562,613.545185 685.616562,616.233185 C685.616562,618.921185 685.042562,621.301185 683.894562,623.373185 C682.746562,625.445185 681.178562,627.083185 679.190562,628.287185 C677.202562,629.491185 674.948562,630.093185 672.428562,630.093185 Z M713.630874,636.393185 C716.262874,636.393185 718.824874,635.959185 721.316874,635.091185 C723.808874,634.223185 725.726874,633.005185 727.070874,631.437185 L727.070874,623.037185 C726.510874,624.269185 725.558874,625.431185 724.214874,626.523185 C722.870874,627.615185 721.288874,628.483185 719.468874,629.127185 C717.648874,629.771185 715.702874,630.093185 713.630874,630.093185 C711.110874,630.093185 708.856874,629.491185 706.868874,628.287185 C704.880874,627.083185 703.312874,625.445185 702.164874,623.373185 C701.016874,621.301185 700.442874,618.921185 700.442874,616.233185 C700.442874,613.545185 701.016874,611.151185 702.164874,609.051185 C703.312874,606.951185 704.880874,605.313185 706.868874,604.137185 C708.856874,602.961185 711.110874,602.373185 713.630874,602.373185 C715.702874,602.373185 717.648874,602.695185 719.468874,603.339185 C721.288874,603.983185 722.870874,604.837185 724.214874,605.901185 C725.558874,606.965185 726.510874,608.141185 727.070874,609.429185 L727.070874,601.029185 C725.726874,599.461185 723.808874,598.243185 721.316874,597.375185 C718.824874,596.507185 716.262874,596.073185 713.630874,596.073185 C709.878874,596.073185 706.490874,596.941185 703.466874,598.677185 C700.442874,600.413185 698.048874,602.793185 696.284874,605.817185 C694.520874,608.841185 693.638874,612.313185 693.638874,616.233185 C693.638874,620.097185 694.520874,623.555185 696.284874,626.607185 C698.048874,629.659185 700.442874,632.053185 703.466874,633.789185 C706.490874,635.525185 709.878874,636.393185 713.630874,636.393185 Z M739.629186,635.553185 L739.629,615.966185 L755.589186,635.553185 L763.989186,635.553185 L745.509186,612.873185 L762.309186,596.913185 L753.909186,596.913185 L739.629,610.479185 L739.629186,570.033185 L732.909186,570.033185 L732.909186,635.553185 L739.629186,635.553185 Z" id="dutydock"></path>
        </g>
    </g>
</svg>